<svg xmlns="http://www.w3.org/2000/svg" width="100" height="25" viewBox="0 0 80 18.4" class="_2LQ3iwnBPxNNEC_a0CKw95"><path d="M0 18.4V0h3.1l1.4 10 .3 3.3.3-3.3L6.5 0h3.1v18.4H7.8V3.3l-.3 2.5-1.8 12.6H3.9L2.1 5.6l-.2-2.3v15.1H0zm12.4 0h2.1V0h-2.1v18.4zm39.6 0h2.1V0H52v18.4zm16-8.3h1.9V8H68V2.1h3.2V0h-5.3v18.4h5.3v-2.1H68v-6.2zM47.2 0v15.3c0 .6-.5 1-1 1-.6 0-1-.5-1-1V0H43v15.3c0 1.8 1.4 3.2 3.2 3.2s3.2-1.4 3.2-3.2V0h-2.2zm13.9 15.3V3.2c0-.6-.5-1-1-1h-1v14.2h1c.5-.1 1-.6 1-1.1zM60 0c1.8 0 3.2 1.4 3.2 3.2v12.1c0 1.8-1.4 3.2-3.2 3.2h-3.2V0H60m17.9 15.3V3.2c0-.6-.5-1-1-1h-1v14.2h1c.5-.1 1-.6 1-1.1zM76.9 0C78.6 0 80 1.4 80 3.2v12.1c0 1.8-1.4 3.2-3.2 3.2h-3.2V0h3.3M29.5 8.4c-1-.9-1.8-1.7-1.8-3.2v-2c0-.6.5-1 1-1s1 .5 1 1v2.1h2.1V3.2c0-1.8-1.4-3.2-3.2-3.2s-3.2 1.4-3.2 3.2v2.1C25.6 7.7 27 9 28 10c1 .9 1.8 1.7 1.8 3.2v2.1c0 .6-.5 1-1 1-.6 0-1-.5-1-1v-3.1h-2.1v3.1c0 1.8 1.4 3.2 3.2 3.2s3.2-1.4 3.2-3.2v-2.1c-.2-2.5-1.5-3.7-2.6-4.8m-8.7 0c-1-.9-1.8-1.7-1.8-3.2v-2c0-.6.5-1 1-1 .6 0 1 .5 1 1v2.1h2.1V3.2c0-1.8-1.4-3.2-3.2-3.2-1.8 0-3.2 1.4-3.2 3.2v2.1c0 2.4 1.4 3.7 2.4 4.7 1 .9 1.8 1.7 1.8 3.2v2.1c0 .6-.5 1-1 1s-1-.5-1-1v-3.1H17v3.1c0 1.8 1.4 3.2 3.2 3.2 1.8 0 3.2-1.4 3.2-3.2v-2.1c-.1-2.5-1.5-3.7-2.6-4.8m19.7-3.2v-2c0-1.8-1.4-3.2-3.2-3.2-1.8 0-3.2 1.4-3.2 3.2v12.1c0 1.7 1.4 3.1 3.1 3.2 1 0 1.8-.5 2.2-1.4l1 1.4v-8.4h-3.2v2.1h1v3.1c0 .6-.4 1-1 1s-1-.5-1-1V3.2c0-.6.5-1 1-1s1 .5 1 1v2.1h2.3z"></path></svg>