<?xml version="1.0" encoding="utf-8"?>
<!-- Generator: Adobe Illustrator 27.7.0, SVG Export Plug-In . SVG Version: 6.00 Build 0)  -->
<svg version="1.1" id="Calque_1" xmlns="http://www.w3.org/2000/svg" xmlns:xlink="http://www.w3.org/1999/xlink" x="0px" y="0px"
	 viewBox="0 0 595.3 122.6" style="enable-background:new 0 0 595.3 122.6;" xml:space="preserve">
<style type="text/css">
	.st0{fill:#FFFFFF;}
</style>
<g>
	<path class="st0" d="M152.9,76.4c-3.9,0.7-23.7,4.7-41,10c-16.7,5.1-31,11.6-31,11.6c-0.9,0.4-2.2,0.1-3-0.7L65.3,82.6
		c-0.7-0.8-1-2.3-0.6-3.3c0,0,2.8-8.1,6.2-16.6c0.9-2.2,2.1-4.8,3.9-6.9c1.3-1.4,2.6-2.8,3.9-4.2c7.3-7.6,15-14.1,22.5-19.6
		c0,0,0,0,0.1-0.1c1-0.7,0.7-1.2-0.3-0.5c-4,2.6-19.5,12.8-33.7,28.4C50.9,77.7,41.1,94.9,39,98.2c-0.6,0.9-1.8,2-2.8,2.5
		c0,0-10.1,4.7-16.6,8.1c-7.4,3.8-17,9.5-17,9.5c-0.9,0.5-1.4,0-1-0.9c0,0,19.9-45.5,53.2-74.3s67.6-38.9,67.6-38.9
		c1-0.3,1.4,0.2,0.7,1.1c0,0-11,16.5-18.4,31.3S92.3,64.8,92.3,64.8c-0.4,1-0.1,2.5,0.6,3.3l7.4,8.6c0.7,0.8,2.1,1.4,3.2,1.4
		c0,0,48.2-2.5,49.3-2.5C153.8,75.5,154,76.2,152.9,76.4"/>
	<g>
		<path class="st0" d="M540.1,41.5v-9.3h-20.8v35.3L534.1,55C537.9,51.5,540.1,46.6,540.1,41.5z"/>
		<path class="st0" d="M593.8,32.2h-26.2l-48.4,41V93h20.8c0,0,0-14.2,0-16c0-1.8,4.1-3.9,6.3-2.1c2.1,1.8,21,18,21,18h26.4
			l-35.9-30.4L593.8,32.2z"/>
		<path class="st0" d="M235.7,32.2c-13.4,0-23.5,0-33.6,0c-10.3,0-22.2,7.2-22.2,18.6c0,9.8,11.6,17.6,21.6,17.6c11,0,24.7,0,29.4,0
			c5,0,7.2,3.6,7.2,5.9c0,3.3-3.3,5.9-7.3,5.9c0,0-16.4,0-22.3,0s-7.4-5.1-7.4-5.1s-17.9,0-21.3,0c0,12.3,14.1,17.9,22.5,17.9
			c4.5,0,15.8,0,33.3,0c10.8,0,24-5.5,24-18.7c0-7.3-7.3-17.5-24-17.5s-22.4-0.1-25.6-0.1s-6.5-2.8-6.5-5.9c0-3.1,3.2-5.9,6.8-5.9
			s13.8,0,18.9,0c4.3,0,6.9,4.2,6.9,5.7c1.6,0,21.2,0,23.5,0C259.7,41.4,250.6,32.2,235.7,32.2z"/>
		<path class="st0" d="M511,51.6c0-12-12.6-19.4-25-19.4c-9,0-52.2,0-52.2,0V93h20.8V71h7.1c5.4,0.3,10.4,2.8,13.8,7l11.7,15h22.9
			c0,0-16.3-21-17.6-22.6C497.2,69.4,511,64.2,511,51.6z M478.1,59.9h-23.5V43.9h23.5c5.4,0,9.8,3.6,9.8,8
			C487.9,56.3,483.5,59.9,478.1,59.9z"/>
		<path class="st0" d="M318.5,52.6c0,2.3-1.8,4.2-4.1,4.2h-25.8V32.2h-20.8V93h20.8V72.7c0-2.3,1.8-4.2,4.1-4.2h25.8V93h20.8V32.2
			h-20.8V52.6z"/>
		<path class="st0" d="M395.3,32.2h-18.3L341,93h20.4l6.1-10.3c0.8-1.2,2-2,3.5-2.1h30.5c1.5,0.1,2.7,0.8,3.5,2.1L411,93h20.2
			L395.3,32.2z M375.6,68.9L386.2,51l10.5,17.9H375.6z"/>
	</g>
</g>
</svg>
