<svg width="157" height="151" viewBox="0 0 157 151" fill="none" xmlns="http://www.w3.org/2000/svg">
<path opacity="0.23" d="M0 0V123.037H85.8039L112.153 151L149.596 111.251C159.515 100.72 159.461 84.6686 149.475 74.7026C145.401 70.634 140.188 68.197 134.57 67.4497V0H0ZM11.2142 11.1852H123.356V68.4109C119.406 69.6441 115.744 71.6965 112.733 74.7026L112.153 75.2925L111.562 74.7026C106.655 69.8035 100.127 67.1111 93.1852 67.1111C86.2436 67.1111 79.7259 69.8035 74.8197 74.7026C73.6966 75.8228 72.7458 77.0387 71.8738 78.2963H44.8568V89.4815H67.6247C66.6217 97.0863 68.9034 105.104 74.6993 111.251L75.2687 111.852H11.2142V11.1852ZM93.1852 67.1111H112.142V55.9259H44.8568V67.1111H93.1852ZM22.4284 33.5556V44.7407H33.6426V33.5556H22.4284ZM44.8568 33.5556V44.7407H112.142V33.5556H44.8568ZM22.4284 55.9259V67.1111H33.6426V55.9259H22.4284ZM22.4284 78.2963V89.4815H33.6426V78.2963H22.4284ZM93.1852 78.2963C97.127 78.2963 100.835 79.8309 103.644 82.6327L104.235 83.2226L112.208 91.1418L120.115 83.1571L120.673 82.6109C123.46 79.8314 127.168 78.2963 131.11 78.2963C135.052 78.2963 138.76 79.8258 141.546 82.6109C147.226 88.2818 147.168 97.4981 141.426 103.594L112.153 134.67L82.869 103.594C77.1217 97.4981 77.0685 88.2818 82.7485 82.6109C85.5409 79.8314 89.2434 78.2963 93.1852 78.2963Z" fill="#EB5B25"/>
</svg>
