<svg width="49" height="49" viewBox="0 0 49 49" fill="none" xmlns="http://www.w3.org/2000/svg">
<mask id="mask0_2135_12201" style="mask-type:alpha" maskUnits="userSpaceOnUse" x="0" y="0" width="49" height="49">
<rect x="0.5" width="48.0043" height="48.0043" fill="#D9D9D9"/>
</mask>
<g mask="url(#mask0_2135_12201)">
<path d="M21.6244 31.8187L34.4179 19.0252L33.0024 17.6097L21.6244 28.9876L15.9239 23.2871L14.5084 24.7026L21.6244 31.8187ZM24.5083 42.0042C22.019 42.0042 19.6786 41.5318 17.4872 40.5871C15.2957 39.6423 13.3895 38.3602 11.7684 36.7407C10.1474 35.1211 8.86404 33.2167 7.91843 31.0273C6.97281 28.8379 6.5 26.4986 6.5 24.0093C6.5 21.52 6.97236 19.1796 7.91708 16.9882C8.86183 14.7967 10.144 12.8905 11.7635 11.2694C13.3831 9.64835 15.2875 8.36502 17.4769 7.4194C19.6663 6.47379 22.0056 6.00098 24.4949 6.00098C26.9842 6.00098 29.3246 6.47334 31.516 7.41805C33.7074 8.3628 35.6137 9.64495 37.2348 11.2645C38.8558 12.884 40.1392 14.7885 41.0848 16.9779C42.0304 19.1672 42.5032 21.5066 42.5032 23.9959C42.5032 26.4852 42.0308 28.8256 41.0861 31.017C40.1414 33.2084 38.8592 35.1147 37.2397 36.7358C35.6201 38.3568 33.7157 39.6401 31.5263 40.5857C29.3369 41.5314 26.9976 42.0042 24.5083 42.0042Z" fill="#27AE60"/>
</g>
</svg>
