<svg width="258" height="161" viewBox="0 0 258 161" fill="none" xmlns="http://www.w3.org/2000/svg">
<g clip-path="url(#clip0_71_48242)">
<mask id="mask0_71_48242" style="mask-type:alpha" maskUnits="userSpaceOnUse" x="0" y="153" width="26" height="26">
<rect x="0.862793" y="178.096" width="25.0277" height="24.876" transform="rotate(-90 0.862793 178.096)" fill="#D9D9D9"/>
</mask>
<g mask="url(#mask0_71_48242)">
<path d="M21.2819 167.355L15.063 167.355L15.063 173.638L11.5389 173.638L11.5389 167.355L5.29395 167.355L5.29395 163.809L11.5389 163.809L11.5389 157.526L15.063 157.526L15.063 163.809L21.2819 163.809L21.2819 167.355Z" fill="white"/>
</g>
<mask id="mask1_71_48242" style="mask-type:alpha" maskUnits="userSpaceOnUse" x="115" y="153" width="26" height="26">
<rect x="115.645" y="178.096" width="25.0277" height="24.876" transform="rotate(-90 115.645 178.096)" fill="#D9D9D9"/>
</mask>
<g mask="url(#mask1_71_48242)">
<path d="M136.064 167.355L129.845 167.355L129.845 173.638L126.321 173.638L126.321 167.355L120.076 167.355L120.076 163.809L126.321 163.809L126.321 157.526L129.845 157.526L129.845 163.809L136.064 163.809L136.064 167.355Z" fill="white"/>
</g>
<mask id="mask2_71_48242" style="mask-type:alpha" maskUnits="userSpaceOnUse" x="115" y="153" width="26" height="26">
<rect x="115.445" y="178.227" width="24.8586" height="24.876" transform="rotate(-90 115.445 178.227)" fill="#D9D9D9"/>
</mask>
<g mask="url(#mask2_71_48242)">
<path d="M135.864 167.558L129.645 167.558L129.645 173.799L126.121 173.799L126.121 167.558L119.876 167.558L119.876 164.037L126.121 164.037L126.121 157.796L129.645 157.796L129.645 164.037L135.864 164.037L135.864 167.558Z" fill="white"/>
</g>
<mask id="mask3_71_48242" style="mask-type:alpha" maskUnits="userSpaceOnUse" x="230" y="153" width="26" height="26">
<rect x="230.227" y="178.227" width="24.8586" height="24.876" transform="rotate(-90 230.227 178.227)" fill="#D9D9D9"/>
</mask>
<g mask="url(#mask3_71_48242)">
<path d="M250.646 167.558L244.427 167.558L244.427 173.799L240.903 173.799L240.903 167.558L234.658 167.558L234.658 164.037L240.903 164.037L240.903 157.796L244.427 157.796L244.427 164.037L250.646 164.037L250.646 167.558Z" fill="white"/>
</g>
<mask id="mask4_71_48242" style="mask-type:alpha" maskUnits="userSpaceOnUse" x="230" y="153" width="26" height="26">
<rect x="230.167" y="178.227" width="24.8586" height="24.876" transform="rotate(-90 230.167 178.227)" fill="#D9D9D9"/>
</mask>
<g mask="url(#mask4_71_48242)">
<path d="M250.587 167.558L244.368 167.558L244.368 173.799L240.844 173.799L240.844 167.558L234.599 167.558L234.599 164.037L240.844 164.037L240.844 157.796L244.368 157.796L244.368 164.037L250.587 164.037L250.587 167.558Z" fill="white"/>
</g>
<rect x="13.3008" y="166.094" width="115.482" height="114.781" transform="rotate(-90 13.3008 166.094)" stroke="white" stroke-opacity="0.3"/>
<mask id="mask5_71_48242" style="mask-type:alpha" maskUnits="userSpaceOnUse" x="115" y="153" width="26" height="26">
<rect x="115.645" y="178.608" width="25.0277" height="24.876" transform="rotate(-90 115.645 178.608)" fill="#D9D9D9"/>
</mask>
<g mask="url(#mask5_71_48242)">
<path d="M136.064 167.867L129.845 167.867L129.845 174.15L126.321 174.15L126.321 167.867L120.076 167.867L120.076 164.322L126.321 164.322L126.321 158.039L129.845 158.039L129.845 164.322L136.064 164.322L136.064 167.867Z" fill="white"/>
</g>
<mask id="mask6_71_48242" style="mask-type:alpha" maskUnits="userSpaceOnUse" x="0" y="153" width="26" height="26">
<rect x="0.862793" y="178.608" width="25.0277" height="24.876" transform="rotate(-90 0.862793 178.608)" fill="#D9D9D9"/>
</mask>
<g mask="url(#mask6_71_48242)">
<path d="M21.2819 167.867L15.063 167.867L15.063 174.15L11.5389 174.15L11.5389 167.867L5.29395 167.867L5.29395 164.322L11.5389 164.322L11.5389 158.039L15.063 158.039L15.063 164.322L21.2819 164.322L21.2819 167.867Z" fill="white"/>
</g>
<mask id="mask7_71_48242" style="mask-type:alpha" maskUnits="userSpaceOnUse" x="0" y="38" width="26" height="26">
<rect x="0.862793" y="63.127" width="25.0277" height="24.876" transform="rotate(-90 0.862793 63.127)" fill="#D9D9D9"/>
</mask>
<g mask="url(#mask7_71_48242)">
<path d="M21.2819 52.3859L15.063 52.3859L15.063 58.6689L11.5389 58.6689L11.5389 52.3859L5.29395 52.3859L5.29395 48.8403L11.5389 48.8403L11.5389 42.5573L15.063 42.5573L15.063 48.8403L21.2819 48.8403L21.2819 52.3859Z" fill="white"/>
</g>
<mask id="mask8_71_48242" style="mask-type:alpha" maskUnits="userSpaceOnUse" x="115" y="38" width="26" height="26">
<rect x="115.645" y="63.127" width="25.0277" height="24.876" transform="rotate(-90 115.645 63.127)" fill="#D9D9D9"/>
</mask>
<g mask="url(#mask8_71_48242)">
<path d="M136.064 52.3859L129.845 52.3859L129.845 58.6689L126.321 58.6689L126.321 52.3859L120.076 52.3859L120.076 48.8403L126.321 48.8403L126.321 42.5573L129.845 42.5573L129.845 48.8403L136.064 48.8403L136.064 52.3859Z" fill="white"/>
</g>
<mask id="mask9_71_48242" style="mask-type:alpha" maskUnits="userSpaceOnUse" x="230" y="153" width="26" height="25">
<rect x="230.227" y="177.959" width="24.8586" height="24.876" transform="rotate(-90 230.227 177.959)" fill="#D9D9D9"/>
</mask>
<g mask="url(#mask9_71_48242)">
<path d="M250.646 167.291L244.427 167.291L244.427 173.531L240.903 173.531L240.903 167.291L234.658 167.291L234.658 163.769L240.903 163.769L240.903 157.529L244.427 157.529L244.427 163.769L250.646 163.769L250.646 167.291Z" fill="white"/>
</g>
<mask id="mask10_71_48242" style="mask-type:alpha" maskUnits="userSpaceOnUse" x="115" y="153" width="26" height="25">
<rect x="115.445" y="177.959" width="24.8586" height="24.876" transform="rotate(-90 115.445 177.959)" fill="#D9D9D9"/>
</mask>
<g mask="url(#mask10_71_48242)">
<path d="M135.864 167.291L129.645 167.291L129.645 173.531L126.121 173.531L126.121 167.291L119.876 167.291L119.876 163.769L126.121 163.769L126.121 157.529L129.645 157.529L129.645 163.769L135.864 163.769L135.864 167.291Z" fill="white"/>
</g>
<mask id="mask11_71_48242" style="mask-type:alpha" maskUnits="userSpaceOnUse" x="115" y="38" width="26" height="26">
<rect x="115.445" y="63.2578" width="24.8586" height="24.876" transform="rotate(-90 115.445 63.2578)" fill="#D9D9D9"/>
</mask>
<g mask="url(#mask11_71_48242)">
<path d="M135.864 52.5895L129.645 52.5895L129.645 58.8301L126.121 58.8301L126.121 52.5895L119.876 52.5895L119.876 49.0679L126.121 49.0679L126.121 42.8273L129.645 42.8273L129.645 49.0679L135.864 49.0679L135.864 52.5895Z" fill="white"/>
</g>
<mask id="mask12_71_48242" style="mask-type:alpha" maskUnits="userSpaceOnUse" x="230" y="38" width="26" height="26">
<rect x="230.227" y="63.2578" width="24.8586" height="24.876" transform="rotate(-90 230.227 63.2578)" fill="#D9D9D9"/>
</mask>
<g mask="url(#mask12_71_48242)">
<path d="M250.646 52.5895L244.427 52.5895L244.427 58.8301L240.903 58.8301L240.903 52.5895L234.658 52.5895L234.658 49.0679L240.903 49.0679L240.903 42.8273L244.427 42.8273L244.427 49.0679L250.646 49.0679L250.646 52.5895Z" fill="white"/>
</g>
<mask id="mask13_71_48242" style="mask-type:alpha" maskUnits="userSpaceOnUse" x="230" y="153" width="26" height="25">
<rect x="230.167" y="177.959" width="24.8586" height="24.876" transform="rotate(-90 230.167 177.959)" fill="#D9D9D9"/>
</mask>
<g mask="url(#mask13_71_48242)">
<path d="M250.587 167.291L244.368 167.291L244.368 173.531L240.844 173.531L240.844 167.291L234.599 167.291L234.599 163.769L240.844 163.769L240.844 157.529L244.368 157.529L244.368 163.769L250.587 163.769L250.587 167.291Z" fill="white"/>
</g>
<mask id="mask14_71_48242" style="mask-type:alpha" maskUnits="userSpaceOnUse" x="230" y="38" width="26" height="26">
<rect x="230.167" y="63.2578" width="24.8586" height="24.876" transform="rotate(-90 230.167 63.2578)" fill="#D9D9D9"/>
</mask>
<g mask="url(#mask14_71_48242)">
<path d="M250.587 52.5895L244.368 52.5895L244.368 58.8301L240.844 58.8301L240.844 52.5895L234.599 52.5895L234.599 49.0679L240.844 49.0679L240.844 42.8273L244.368 42.8273L244.368 49.0679L250.587 49.0679L250.587 52.5895Z" fill="white"/>
</g>
<mask id="mask15_71_48242" style="mask-type:alpha" maskUnits="userSpaceOnUse" x="230" y="38" width="26" height="25">
<rect x="230.227" y="62.9824" width="24.8586" height="24.876" transform="rotate(-90 230.227 62.9824)" fill="#D9D9D9"/>
</mask>
<g mask="url(#mask15_71_48242)">
<path d="M250.646 52.3141L244.427 52.3141L244.427 58.5547L240.903 58.5547L240.903 52.3141L234.658 52.3141L234.658 48.7925L240.903 48.7925L240.903 42.5519L244.427 42.5519L244.427 48.7925L250.646 48.7925L250.646 52.3141Z" fill="white"/>
</g>
<mask id="mask16_71_48242" style="mask-type:alpha" maskUnits="userSpaceOnUse" x="115" y="38" width="26" height="25">
<rect x="115.445" y="62.9824" width="24.8586" height="24.876" transform="rotate(-90 115.445 62.9824)" fill="#D9D9D9"/>
</mask>
<g mask="url(#mask16_71_48242)">
<path d="M135.864 52.3141L129.645 52.3141L129.645 58.5547L126.121 58.5547L126.121 52.3141L119.876 52.3141L119.876 48.7925L126.121 48.7925L126.121 42.5519L129.645 42.5519L129.645 48.7925L135.864 48.7925L135.864 52.3141Z" fill="white"/>
</g>
<mask id="mask17_71_48242" style="mask-type:alpha" maskUnits="userSpaceOnUse" x="230" y="38" width="26" height="25">
<rect x="230.167" y="62.9824" width="24.8586" height="24.876" transform="rotate(-90 230.167 62.9824)" fill="#D9D9D9"/>
</mask>
<g mask="url(#mask17_71_48242)">
<path d="M250.587 52.3141L244.368 52.3141L244.368 58.5547L240.844 58.5547L240.844 52.3141L234.599 52.3141L234.599 48.7925L240.844 48.7925L240.844 42.5519L244.368 42.5519L244.368 48.7925L250.587 48.7925L250.587 52.3141Z" fill="white"/>
</g>
</g>
<defs>
<clipPath id="clip0_71_48242">
<rect width="408" height="258" fill="white" transform="translate(0 408.844) rotate(-90)"/>
</clipPath>
</defs>
</svg>
