<svg width="408" height="191" viewBox="0 0 408 191" fill="none" xmlns="http://www.w3.org/2000/svg">
<g clip-path="url(#clip0_71_48440)">
<rect x="12.812" y="-53.6992" width="115.482" height="114.781" stroke="white" stroke-opacity="0.3"/>
<mask id="mask0_71_48440" style="mask-type:alpha" maskUnits="userSpaceOnUse" x="0" y="48" width="26" height="26">
<rect x="0.29834" y="48.6445" width="25.0277" height="24.876" fill="#D9D9D9"/>
</mask>
<g mask="url(#mask0_71_48440)">
<path d="M11.0394 69.0632V62.8442H4.75635L4.75635 59.3201H11.0394V53.0752H14.5849V59.3201H20.868V62.8442H14.5849L14.5849 69.0632H11.0394Z" fill="white"/>
</g>
<mask id="mask1_71_48440" style="mask-type:alpha" maskUnits="userSpaceOnUse" x="115" y="48" width="26" height="26">
<rect x="115.78" y="48.6445" width="25.0277" height="24.876" fill="#D9D9D9"/>
</mask>
<g mask="url(#mask1_71_48440)">
<path d="M126.521 69.0632V62.8442H120.238V59.3201H126.521V53.0752H130.066V59.3201H136.349V62.8442H130.066V69.0632H126.521Z" fill="white"/>
</g>
<rect x="127.781" y="-53.6992" width="115.482" height="114.781" stroke="white" stroke-opacity="0.3"/>
<mask id="mask2_71_48440" style="mask-type:alpha" maskUnits="userSpaceOnUse" x="115" y="48" width="26" height="26">
<rect x="115.267" y="48.6445" width="25.0277" height="24.876" fill="#D9D9D9"/>
</mask>
<g mask="url(#mask2_71_48440)">
<path d="M126.008 69.0632V62.8442H119.725V59.3201H126.008V53.0752H129.554V59.3201H135.837V62.8442H129.554V69.0632H126.008Z" fill="white"/>
</g>
<mask id="mask3_71_48440" style="mask-type:alpha" maskUnits="userSpaceOnUse" x="230" y="48" width="26" height="26">
<rect x="230.749" y="48.6445" width="25.0277" height="24.876" fill="#D9D9D9"/>
</mask>
<g mask="url(#mask3_71_48440)">
<path d="M241.49 69.0632V62.8442H235.207V59.3201H241.49V53.0752H245.035V59.3201H251.318V62.8442H245.035V69.0632H241.49Z" fill="white"/>
</g>
<rect x="128.346" y="60.8828" width="114.701" height="114.781" stroke="white" stroke-opacity="0.3"/>
<mask id="mask4_71_48440" style="mask-type:alpha" maskUnits="userSpaceOnUse" x="115" y="163" width="26" height="26">
<rect x="115.917" y="163.227" width="24.8586" height="24.876" fill="#D9D9D9"/>
</mask>
<g mask="url(#mask4_71_48440)">
<path d="M126.585 183.645V177.426H120.345V173.902H126.585V167.657H130.107V173.902H136.347V177.426H130.107V183.645H126.585Z" fill="white"/>
</g>
<mask id="mask5_71_48440" style="mask-type:alpha" maskUnits="userSpaceOnUse" x="115" y="48" width="26" height="26">
<rect x="115.917" y="48.4453" width="24.8586" height="24.876" fill="#D9D9D9"/>
</mask>
<g mask="url(#mask5_71_48440)">
<path d="M126.585 68.864V62.645H120.345V59.1209H126.585V52.876H130.107V59.1209H136.347V62.645H130.107V68.864H126.585Z" fill="white"/>
</g>
<mask id="mask6_71_48440" style="mask-type:alpha" maskUnits="userSpaceOnUse" x="230" y="48" width="26" height="26">
<rect x="230.617" y="48.4453" width="24.8586" height="24.876" fill="#D9D9D9"/>
</mask>
<g mask="url(#mask6_71_48440)">
<path d="M241.286 68.864V62.645H235.045V59.1209H241.286V52.876H244.808V59.1209H251.048V62.645H244.808V68.864H241.286Z" fill="white"/>
</g>
<mask id="mask7_71_48440" style="mask-type:alpha" maskUnits="userSpaceOnUse" x="230" y="163" width="26" height="26">
<rect x="230.617" y="163.227" width="24.8586" height="24.876" fill="#D9D9D9"/>
</mask>
<g mask="url(#mask7_71_48440)">
<path d="M241.286 183.645V177.426H235.045V173.902H241.286V167.657H244.808V173.902H251.048V177.426H244.808V183.645H241.286Z" fill="white"/>
</g>
<mask id="mask8_71_48440" style="mask-type:alpha" maskUnits="userSpaceOnUse" x="230" y="163" width="26" height="26">
<rect x="230.617" y="163.168" width="24.8586" height="24.876" fill="#D9D9D9"/>
</mask>
<g mask="url(#mask8_71_48440)">
<path d="M241.286 183.587V177.368H235.045V173.844H241.286V167.599H244.808V173.844H251.048V177.368H244.808V183.587H241.286Z" fill="white"/>
</g>
<rect x="242.75" y="-53.6992" width="115.482" height="114.781" stroke="white" stroke-opacity="0.3"/>
<mask id="mask9_71_48440" style="mask-type:alpha" maskUnits="userSpaceOnUse" x="230" y="48" width="26" height="26">
<rect x="230.236" y="48.6445" width="25.0277" height="24.876" fill="#D9D9D9"/>
</mask>
<g mask="url(#mask9_71_48440)">
<path d="M240.977 69.0632V62.8442H234.694V59.3201H240.977V53.0752H244.522V59.3201H250.805V62.8442H244.522V69.0632H240.977Z" fill="white"/>
</g>
<mask id="mask10_71_48440" style="mask-type:alpha" maskUnits="userSpaceOnUse" x="345" y="48" width="26" height="26">
<rect x="345.717" y="48.6445" width="25.0277" height="24.876" fill="#D9D9D9"/>
</mask>
<g mask="url(#mask10_71_48440)">
<path d="M356.458 69.0632V62.8442H350.175V59.3201H356.458V53.0752H360.004V59.3201H366.287V62.8442H360.004V69.0632H356.458Z" fill="white"/>
</g>
<mask id="mask11_71_48440" style="mask-type:alpha" maskUnits="userSpaceOnUse" x="230" y="163" width="26" height="26">
<rect x="230.885" y="163.227" width="24.8586" height="24.876" fill="#D9D9D9"/>
</mask>
<g mask="url(#mask11_71_48440)">
<path d="M241.554 183.645V177.426H235.313V173.902H241.554V167.657H245.076V173.902H251.316V177.426H245.076V183.645H241.554Z" fill="white"/>
</g>
<mask id="mask12_71_48440" style="mask-type:alpha" maskUnits="userSpaceOnUse" x="230" y="48" width="26" height="26">
<rect x="230.885" y="48.4453" width="24.8586" height="24.876" fill="#D9D9D9"/>
</mask>
<g mask="url(#mask12_71_48440)">
<path d="M241.554 68.864V62.645H235.313V59.1209H241.554V52.876H245.076V59.1209H251.316V62.645H245.076V68.864H241.554Z" fill="white"/>
</g>
<mask id="mask13_71_48440" style="mask-type:alpha" maskUnits="userSpaceOnUse" x="345" y="48" width="26" height="26">
<rect x="345.586" y="48.4453" width="24.8586" height="24.876" fill="#D9D9D9"/>
</mask>
<g mask="url(#mask13_71_48440)">
<path d="M356.255 68.864V62.645H350.014V59.1209H356.255V52.876H359.776V59.1209H366.017V62.645H359.776V68.864H356.255Z" fill="white"/>
</g>
<mask id="mask14_71_48440" style="mask-type:alpha" maskUnits="userSpaceOnUse" x="345" y="163" width="26" height="26">
<rect x="345.586" y="163.227" width="24.8586" height="24.876" fill="#D9D9D9"/>
</mask>
<g mask="url(#mask14_71_48440)">
<path d="M356.255 183.645V177.426H350.014V173.902H356.255V167.657H359.776V173.902H366.017V177.426H359.776V183.645H356.255Z" fill="white"/>
</g>
<mask id="mask15_71_48440" style="mask-type:alpha" maskUnits="userSpaceOnUse" x="230" y="163" width="26" height="26">
<rect x="230.885" y="163.168" width="24.8586" height="24.876" fill="#D9D9D9"/>
</mask>
<g mask="url(#mask15_71_48440)">
<path d="M241.554 183.587V177.368H235.313V173.844H241.554V167.599H245.076V173.844H251.316V177.368H245.076V183.587H241.554Z" fill="white"/>
</g>
<mask id="mask16_71_48440" style="mask-type:alpha" maskUnits="userSpaceOnUse" x="345" y="163" width="26" height="26">
<rect x="345.586" y="163.168" width="24.8586" height="24.876" fill="#D9D9D9"/>
</mask>
<g mask="url(#mask16_71_48440)">
<path d="M356.255 183.587V177.368H350.014V173.844H356.255V167.599H359.776V173.844H366.017V177.368H359.776V183.587H356.255Z" fill="white"/>
</g>
<mask id="mask17_71_48440" style="mask-type:alpha" maskUnits="userSpaceOnUse" x="345" y="163" width="26" height="26">
<rect x="345.862" y="163.227" width="24.8586" height="24.876" fill="#D9D9D9"/>
</mask>
<g mask="url(#mask17_71_48440)">
<path d="M356.531 183.645V177.426H350.29V173.902H356.531V167.657H360.052V173.902H366.293V177.426H360.052V183.645H356.531Z" fill="white"/>
</g>
<mask id="mask18_71_48440" style="mask-type:alpha" maskUnits="userSpaceOnUse" x="345" y="48" width="26" height="26">
<rect x="345.862" y="48.4453" width="24.8586" height="24.876" fill="#D9D9D9"/>
</mask>
<g mask="url(#mask18_71_48440)">
<path d="M356.531 68.864V62.645H350.29V59.1209H356.531V52.876H360.052V59.1209H366.293V62.645H360.052V68.864H356.531Z" fill="white"/>
</g>
<mask id="mask19_71_48440" style="mask-type:alpha" maskUnits="userSpaceOnUse" x="345" y="163" width="26" height="26">
<rect x="345.862" y="163.168" width="24.8586" height="24.876" fill="#D9D9D9"/>
</mask>
<g mask="url(#mask19_71_48440)">
<path d="M356.531 183.587V177.368H350.29V173.844H356.531V167.599H360.052V173.844H366.293V177.368H360.052V183.587H356.531Z" fill="white"/>
</g>
</g>
<defs>
<clipPath id="clip0_71_48440">
<rect width="408" height="258" fill="white" transform="translate(0 -67)"/>
</clipPath>
</defs>
</svg>
