<svg width="258" height="225" viewBox="0 0 258 225" fill="none" xmlns="http://www.w3.org/2000/svg">
<g clip-path="url(#clip0_71_48342)">
<rect x="244.699" y="-55.2188" width="115.482" height="114.781" transform="rotate(90 244.699 -55.2188)" stroke="white" stroke-opacity="0.3"/>
<mask id="mask0_71_48342" style="mask-type:alpha" maskUnits="userSpaceOnUse" x="232" y="47" width="26" height="26">
<rect x="257.137" y="47.748" width="25.0277" height="24.876" transform="rotate(90 257.137 47.748)" fill="#D9D9D9"/>
</mask>
<g mask="url(#mask0_71_48342)">
<path d="M236.718 58.4891L242.937 58.4891L242.937 52.2061L246.461 52.2061L246.461 58.4891L252.706 58.4891L252.706 62.0347L246.461 62.0347L246.461 68.3177L242.937 68.3177L242.937 62.0347L236.718 62.0347L236.718 58.4891Z" fill="white"/>
</g>
<mask id="mask1_71_48342" style="mask-type:alpha" maskUnits="userSpaceOnUse" x="117" y="47" width="26" height="26">
<rect x="142.355" y="47.748" width="25.0277" height="24.876" transform="rotate(90 142.355 47.748)" fill="#D9D9D9"/>
</mask>
<g mask="url(#mask1_71_48342)">
<path d="M121.936 58.4891L128.155 58.4891L128.155 52.2061L131.679 52.2061L131.679 58.4891L137.924 58.4891L137.924 62.0347L131.679 62.0347L131.679 68.3177L128.155 68.3177L128.155 62.0347L121.936 62.0347L121.936 58.4891Z" fill="white"/>
</g>
<rect x="244.699" y="59.75" width="115.482" height="114.781" transform="rotate(90 244.699 59.75)" stroke="white" stroke-opacity="0.3"/>
<mask id="mask2_71_48342" style="mask-type:alpha" maskUnits="userSpaceOnUse" x="117" y="47" width="26" height="26">
<rect x="142.355" y="47.2354" width="25.0277" height="24.876" transform="rotate(90 142.355 47.2354)" fill="#D9D9D9"/>
</mask>
<g mask="url(#mask2_71_48342)">
<path d="M121.936 57.9764L128.155 57.9764L128.155 51.6934L131.679 51.6934L131.679 57.9764L137.924 57.9764L137.924 61.522L131.679 61.522L131.679 67.805L128.155 67.805L128.155 61.522L121.936 61.522L121.936 57.9764Z" fill="white"/>
</g>
<mask id="mask3_71_48342" style="mask-type:alpha" maskUnits="userSpaceOnUse" x="232" y="47" width="26" height="26">
<rect x="257.137" y="47.2354" width="25.0277" height="24.876" transform="rotate(90 257.137 47.2354)" fill="#D9D9D9"/>
</mask>
<g mask="url(#mask3_71_48342)">
<path d="M236.718 57.9764L242.937 57.9764L242.937 51.6934L246.461 51.6934L246.461 57.9764L252.706 57.9764L252.706 61.522L246.461 61.522L246.461 67.805L242.937 67.805L242.937 61.522L236.718 61.522L236.718 57.9764Z" fill="white"/>
</g>
<mask id="mask4_71_48342" style="mask-type:alpha" maskUnits="userSpaceOnUse" x="232" y="162" width="26" height="26">
<rect x="257.137" y="162.717" width="25.0277" height="24.876" transform="rotate(90 257.137 162.717)" fill="#D9D9D9"/>
</mask>
<g mask="url(#mask4_71_48342)">
<path d="M236.718 173.458L242.937 173.458L242.937 167.175L246.461 167.175L246.461 173.458L252.706 173.458L252.706 177.003L246.461 177.003L246.461 183.286L242.937 183.286L242.937 177.003L236.718 177.003L236.718 173.458Z" fill="white"/>
</g>
<mask id="mask5_71_48342" style="mask-type:alpha" maskUnits="userSpaceOnUse" x="117" y="162" width="26" height="26">
<rect x="142.355" y="162.717" width="25.0277" height="24.876" transform="rotate(90 142.355 162.717)" fill="#D9D9D9"/>
</mask>
<g mask="url(#mask5_71_48342)">
<path d="M121.936 173.458L128.155 173.458L128.155 167.175L131.679 167.175L131.679 173.458L137.924 173.458L137.924 177.003L131.679 177.003L131.679 183.286L128.155 183.286L128.155 177.003L121.936 177.003L121.936 173.458Z" fill="white"/>
</g>
<mask id="mask6_71_48342" style="mask-type:alpha" maskUnits="userSpaceOnUse" x="2" y="47" width="26" height="26">
<rect x="27.7734" y="47.8848" width="24.8586" height="24.876" transform="rotate(90 27.7734 47.8848)" fill="#D9D9D9"/>
</mask>
<g mask="url(#mask6_71_48342)">
<path d="M7.35429 58.5531L13.5733 58.5531L13.5733 52.3125L17.0974 52.3125L17.0974 58.5531L23.3423 58.5531L23.3423 62.0747L17.0974 62.0747L17.0974 68.3152L13.5733 68.3152L13.5733 62.0747L7.35429 62.0747L7.35429 58.5531Z" fill="white"/>
</g>
<mask id="mask7_71_48342" style="mask-type:alpha" maskUnits="userSpaceOnUse" x="117" y="47" width="26" height="26">
<rect x="142.555" y="47.8848" width="24.8586" height="24.876" transform="rotate(90 142.555 47.8848)" fill="#D9D9D9"/>
</mask>
<g mask="url(#mask7_71_48342)">
<path d="M122.136 58.5531L128.355 58.5531L128.355 52.3125L131.879 52.3125L131.879 58.5531L138.124 58.5531L138.124 62.0747L131.879 62.0747L131.879 68.3152L128.355 68.3152L128.355 62.0747L122.136 62.0747L122.136 58.5531Z" fill="white"/>
</g>
<mask id="mask8_71_48342" style="mask-type:alpha" maskUnits="userSpaceOnUse" x="117" y="162" width="26" height="26">
<rect x="142.555" y="162.586" width="24.8586" height="24.876" transform="rotate(90 142.555 162.586)" fill="#D9D9D9"/>
</mask>
<g mask="url(#mask8_71_48342)">
<path d="M122.136 173.254L128.355 173.254L128.355 167.014L131.879 167.014L131.879 173.254L138.124 173.254L138.124 176.776L131.879 176.776L131.879 183.016L128.355 183.016L128.355 176.776L122.136 176.776L122.136 173.254Z" fill="white"/>
</g>
<mask id="mask9_71_48342" style="mask-type:alpha" maskUnits="userSpaceOnUse" x="2" y="162" width="26" height="26">
<rect x="27.7734" y="162.586" width="24.8586" height="24.876" transform="rotate(90 27.7734 162.586)" fill="#D9D9D9"/>
</mask>
<g mask="url(#mask9_71_48342)">
<path d="M7.35429 173.254L13.5733 173.254L13.5733 167.014L17.0974 167.014L17.0974 173.254L23.3423 173.254L23.3423 176.776L17.0974 176.776L17.0974 183.016L13.5733 183.016L13.5733 176.776L7.35429 176.776L7.35429 173.254Z" fill="white"/>
</g>
<mask id="mask10_71_48342" style="mask-type:alpha" maskUnits="userSpaceOnUse" x="2" y="47" width="26" height="26">
<rect x="27.8325" y="47.8848" width="24.8586" height="24.876" transform="rotate(90 27.8325 47.8848)" fill="#D9D9D9"/>
</mask>
<g mask="url(#mask10_71_48342)">
<path d="M7.41337 58.5531L13.6324 58.5531L13.6324 52.3125L17.1565 52.3125L17.1565 58.5531L23.4014 58.5531L23.4014 62.0747L17.1565 62.0747L17.1565 68.3152L13.6324 68.3152L13.6324 62.0747L7.41337 62.0747L7.41337 58.5531Z" fill="white"/>
</g>
<mask id="mask11_71_48342" style="mask-type:alpha" maskUnits="userSpaceOnUse" x="2" y="162" width="26" height="26">
<rect x="27.8325" y="162.586" width="24.8586" height="24.876" transform="rotate(90 27.8325 162.586)" fill="#D9D9D9"/>
</mask>
<g mask="url(#mask11_71_48342)">
<path d="M7.41337 173.254L13.6324 173.254L13.6324 167.014L17.1565 167.014L17.1565 173.254L23.4014 173.254L23.4014 176.776L17.1565 176.776L17.1565 183.016L13.6324 183.016L13.6324 176.776L7.41337 176.776L7.41337 173.254Z" fill="white"/>
</g>
<mask id="mask12_71_48342" style="mask-type:alpha" maskUnits="userSpaceOnUse" x="2" y="162" width="26" height="26">
<rect x="27.7734" y="162.861" width="24.8586" height="24.876" transform="rotate(90 27.7734 162.861)" fill="#D9D9D9"/>
</mask>
<g mask="url(#mask12_71_48342)">
<path d="M7.35429 173.53L13.5733 173.53L13.5733 167.289L17.0974 167.289L17.0974 173.53L23.3423 173.53L23.3423 177.051L17.0974 177.051L17.0974 183.292L13.5733 183.292L13.5733 177.051L7.35429 177.051L7.35429 173.53Z" fill="white"/>
</g>
<mask id="mask13_71_48342" style="mask-type:alpha" maskUnits="userSpaceOnUse" x="117" y="162" width="26" height="26">
<rect x="142.555" y="162.861" width="24.8586" height="24.876" transform="rotate(90 142.555 162.861)" fill="#D9D9D9"/>
</mask>
<g mask="url(#mask13_71_48342)">
<path d="M122.136 173.53L128.355 173.53L128.355 167.289L131.879 167.289L131.879 173.53L138.124 173.53L138.124 177.051L131.879 177.051L131.879 183.292L128.355 183.292L128.355 177.051L122.136 177.051L122.136 173.53Z" fill="white"/>
</g>
<mask id="mask14_71_48342" style="mask-type:alpha" maskUnits="userSpaceOnUse" x="2" y="162" width="26" height="26">
<rect x="27.8325" y="162.861" width="24.8586" height="24.876" transform="rotate(90 27.8325 162.861)" fill="#D9D9D9"/>
</mask>
<g mask="url(#mask14_71_48342)">
<path d="M7.41337 173.53L13.6324 173.53L13.6324 167.289L17.1565 167.289L17.1565 173.53L23.4014 173.53L23.4014 177.051L17.1565 177.051L17.1565 183.292L13.6324 183.292L13.6324 177.051L7.41337 177.051L7.41337 173.53Z" fill="white"/>
</g>
</g>
<defs>
<clipPath id="clip0_71_48342">
<rect width="408" height="258" fill="white" transform="translate(258 -183) rotate(90)"/>
</clipPath>
</defs>
</svg>
