<svg width="234" height="180" viewBox="0 0 234 180" fill="none" xmlns="http://www.w3.org/2000/svg">
<g clip-path="url(#clip0_71_54713)">
<rect x="275.082" y="170.72" width="80.3843" height="80.0801" transform="rotate(-180 275.082 170.72)" stroke="white" stroke-opacity="0.3"/>
<mask id="mask0_71_54713" style="mask-type:alpha" maskUnits="userSpaceOnUse" x="185" y="162" width="19" height="18">
<rect x="203.408" y="179.397" width="17.4213" height="17.3553" transform="rotate(-180 203.408 179.397)" fill="#D9D9D9"/>
</mask>
<g mask="url(#mask0_71_54713)">
<path d="M195.932 165.151L195.932 169.49L200.305 169.49L200.305 171.949L195.932 171.949L195.932 176.306L193.464 176.306L193.464 171.949L189.09 171.949L189.09 169.49L193.464 169.49L193.464 165.151L195.932 165.151Z" fill="white"/>
</g>
<mask id="mask1_71_54713" style="mask-type:alpha" maskUnits="userSpaceOnUse" x="185" y="81" width="19" height="19">
<rect x="203.408" y="99.3174" width="17.4213" height="17.3553" transform="rotate(-180 203.408 99.3174)" fill="#D9D9D9"/>
</mask>
<g mask="url(#mask1_71_54713)">
<path d="M195.932 85.0712L195.932 89.41L200.305 89.41L200.305 91.8687L195.932 91.8687L195.932 96.2256L193.464 96.2256L193.464 91.8687L189.09 91.8687L189.09 89.41L193.464 89.41L193.464 85.0712L195.932 85.0712Z" fill="white"/>
</g>
<rect x="195.054" y="170.72" width="80.3843" height="80.0801" transform="rotate(-180 195.054 170.72)" stroke="white" stroke-opacity="0.3"/>
<mask id="mask2_71_54713" style="mask-type:alpha" maskUnits="userSpaceOnUse" x="186" y="81" width="18" height="19">
<rect x="203.765" y="99.3174" width="17.4213" height="17.3553" transform="rotate(-180 203.765 99.3174)" fill="#D9D9D9"/>
</mask>
<g mask="url(#mask2_71_54713)">
<path d="M196.289 85.0712L196.289 89.41L200.662 89.41L200.662 91.8687L196.289 91.8687L196.289 96.2256L193.821 96.2256L193.821 91.8687L189.447 91.8687L189.447 89.41L193.821 89.41L193.821 85.0712L196.289 85.0712Z" fill="white"/>
</g>
<mask id="mask3_71_54713" style="mask-type:alpha" maskUnits="userSpaceOnUse" x="186" y="162" width="18" height="18">
<rect x="203.765" y="179.397" width="17.4213" height="17.3553" transform="rotate(-180 203.765 179.397)" fill="#D9D9D9"/>
</mask>
<g mask="url(#mask3_71_54713)">
<path d="M196.289 165.151L196.289 169.49L200.662 169.49L200.662 171.949L196.289 171.949L196.289 176.306L193.821 176.306L193.821 171.949L189.447 171.949L189.447 169.49L193.821 169.49L193.821 165.151L196.289 165.151Z" fill="white"/>
</g>
<mask id="mask4_71_54713" style="mask-type:alpha" maskUnits="userSpaceOnUse" x="105" y="162" width="19" height="18">
<rect x="123.381" y="179.397" width="17.4213" height="17.3553" transform="rotate(-180 123.381 179.397)" fill="#D9D9D9"/>
</mask>
<g mask="url(#mask4_71_54713)">
<path d="M115.904 165.151L115.904 169.49L120.278 169.49L120.278 171.949L115.904 171.949L115.904 176.306L113.436 176.306L113.436 171.949L109.063 171.949L109.063 169.49L113.436 169.49L113.436 165.151L115.904 165.151Z" fill="white"/>
</g>
<mask id="mask5_71_54713" style="mask-type:alpha" maskUnits="userSpaceOnUse" x="105" y="81" width="19" height="19">
<rect x="123.381" y="99.3174" width="17.4213" height="17.3553" transform="rotate(-180 123.381 99.3174)" fill="#D9D9D9"/>
</mask>
<g mask="url(#mask5_71_54713)">
<path d="M115.904 85.0712L115.904 89.41L120.278 89.41L120.278 91.8687L115.904 91.8687L115.904 96.2256L113.436 96.2256L113.436 91.8687L109.063 91.8687L109.063 89.41L113.436 89.41L113.436 85.0712L115.904 85.0712Z" fill="white"/>
</g>
<rect x="194.661" y="90.7793" width="79.8412" height="80.0801" transform="rotate(-180 194.661 90.7793)" stroke="white" stroke-opacity="0.3"/>
<mask id="mask6_71_54713" style="mask-type:alpha" maskUnits="userSpaceOnUse" x="186" y="2" width="18" height="18">
<rect x="203.313" y="19.377" width="17.3036" height="17.3553" transform="rotate(-180 203.313 19.377)" fill="#D9D9D9"/>
</mask>
<g mask="url(#mask6_71_54713)">
<path d="M195.887 5.13074L195.887 9.46957L200.23 9.46957L200.23 11.9282L195.887 11.9282L195.887 16.2852L193.435 16.2852L193.435 11.9282L189.091 11.9282L189.091 9.46957L193.435 9.46957L193.435 5.13074L195.887 5.13074Z" fill="white"/>
</g>
<mask id="mask7_71_54713" style="mask-type:alpha" maskUnits="userSpaceOnUse" x="186" y="82" width="18" height="18">
<rect x="203.313" y="99.457" width="17.3036" height="17.3553" transform="rotate(-180 203.313 99.457)" fill="#D9D9D9"/>
</mask>
<g mask="url(#mask7_71_54713)">
<path d="M195.887 85.2108L195.887 89.5496L200.23 89.5496L200.23 92.0083L195.887 92.0083L195.887 96.3652L193.435 96.3652L193.435 92.0083L189.091 92.0083L189.091 89.5496L193.435 89.5496L193.435 85.2108L195.887 85.2108Z" fill="white"/>
</g>
<mask id="mask8_71_54713" style="mask-type:alpha" maskUnits="userSpaceOnUse" x="106" y="82" width="18" height="18">
<rect x="123.472" y="99.457" width="17.3036" height="17.3553" transform="rotate(-180 123.472 99.457)" fill="#D9D9D9"/>
</mask>
<g mask="url(#mask8_71_54713)">
<path d="M116.046 85.2108L116.046 89.5496L120.39 89.5496L120.39 92.0083L116.046 92.0083L116.046 96.3652L113.594 96.3652L113.594 92.0083L109.25 92.0083L109.25 89.5496L113.594 89.5496L113.594 85.2108L116.046 85.2108Z" fill="white"/>
</g>
<mask id="mask9_71_54713" style="mask-type:alpha" maskUnits="userSpaceOnUse" x="106" y="2" width="18" height="18">
<rect x="123.472" y="19.377" width="17.3036" height="17.3553" transform="rotate(-180 123.472 19.377)" fill="#D9D9D9"/>
</mask>
<g mask="url(#mask9_71_54713)">
<path d="M116.046 5.13074L116.046 9.46957L120.39 9.46957L120.39 11.9282L116.046 11.9282L116.046 16.2852L113.594 16.2852L113.594 11.9282L109.25 11.9282L109.25 9.46957L113.594 9.46957L113.594 5.13074L116.046 5.13074Z" fill="white"/>
</g>
<mask id="mask10_71_54713" style="mask-type:alpha" maskUnits="userSpaceOnUse" x="106" y="2" width="18" height="18">
<rect x="123.472" y="19.418" width="17.3036" height="17.3553" transform="rotate(-180 123.472 19.418)" fill="#D9D9D9"/>
</mask>
<g mask="url(#mask10_71_54713)">
<path d="M116.046 5.17175L116.046 9.51059L120.39 9.51059L120.39 11.9693L116.046 11.9693L116.046 16.3262L113.594 16.3262L113.594 11.9693L109.25 11.9693L109.25 9.51059L113.594 9.51059L113.594 5.17175L116.046 5.17175Z" fill="white"/>
</g>
<rect x="115.027" y="170.72" width="80.3843" height="80.0801" transform="rotate(-180 115.027 170.72)" stroke="white" stroke-opacity="0.3"/>
<mask id="mask11_71_54713" style="mask-type:alpha" maskUnits="userSpaceOnUse" x="106" y="81" width="18" height="19">
<rect x="123.738" y="99.3174" width="17.4213" height="17.3553" transform="rotate(-180 123.738 99.3174)" fill="#D9D9D9"/>
</mask>
<g mask="url(#mask11_71_54713)">
<path d="M116.261 85.0712L116.261 89.41L120.635 89.41L120.635 91.8687L116.261 91.8687L116.261 96.2256L113.793 96.2256L113.793 91.8687L109.42 91.8687L109.42 89.41L113.793 89.41L113.793 85.0712L116.261 85.0712Z" fill="white"/>
</g>
<mask id="mask12_71_54713" style="mask-type:alpha" maskUnits="userSpaceOnUse" x="106" y="162" width="18" height="18">
<rect x="123.738" y="179.397" width="17.4213" height="17.3553" transform="rotate(-180 123.738 179.397)" fill="#D9D9D9"/>
</mask>
<g mask="url(#mask12_71_54713)">
<path d="M116.261 165.151L116.261 169.49L120.635 169.49L120.635 171.949L116.261 171.949L116.261 176.306L113.793 176.306L113.793 171.949L109.42 171.949L109.42 169.49L113.793 169.49L113.793 165.151L116.261 165.151Z" fill="white"/>
</g>
<mask id="mask13_71_54713" style="mask-type:alpha" maskUnits="userSpaceOnUse" x="25" y="162" width="19" height="18">
<rect x="43.3535" y="179.397" width="17.4213" height="17.3553" transform="rotate(-180 43.3535 179.397)" fill="#D9D9D9"/>
</mask>
<g mask="url(#mask13_71_54713)">
<path d="M35.877 165.151L35.877 169.49L40.2505 169.49L40.2505 171.949L35.877 171.949L35.877 176.306L33.409 176.306L33.409 171.949L29.0355 171.949L29.0355 169.49L33.409 169.49L33.409 165.151L35.877 165.151Z" fill="white"/>
</g>
<mask id="mask14_71_54713" style="mask-type:alpha" maskUnits="userSpaceOnUse" x="25" y="81" width="19" height="19">
<rect x="43.3535" y="99.3174" width="17.4213" height="17.3553" transform="rotate(-180 43.3535 99.3174)" fill="#D9D9D9"/>
</mask>
<g mask="url(#mask14_71_54713)">
<path d="M35.877 85.0712L35.877 89.41L40.2505 89.41L40.2505 91.8687L35.877 91.8687L35.877 96.2256L33.409 96.2256L33.409 91.8687L29.0355 91.8687L29.0355 89.41L33.409 89.41L33.409 85.0712L35.877 85.0712Z" fill="white"/>
</g>
<mask id="mask15_71_54713" style="mask-type:alpha" maskUnits="userSpaceOnUse" x="105" y="2" width="19" height="18">
<rect x="123.286" y="19.377" width="17.3036" height="17.3553" transform="rotate(-180 123.286 19.377)" fill="#D9D9D9"/>
</mask>
<g mask="url(#mask15_71_54713)">
<path d="M115.859 5.13074L115.859 9.46957L120.203 9.46957L120.203 11.9282L115.859 11.9282L115.859 16.2852L113.408 16.2852L113.408 11.9282L109.064 11.9282L109.064 9.46957L113.408 9.46957L113.408 5.13074L115.859 5.13074Z" fill="white"/>
</g>
<mask id="mask16_71_54713" style="mask-type:alpha" maskUnits="userSpaceOnUse" x="105" y="82" width="19" height="18">
<rect x="123.286" y="99.457" width="17.3036" height="17.3553" transform="rotate(-180 123.286 99.457)" fill="#D9D9D9"/>
</mask>
<g mask="url(#mask16_71_54713)">
<path d="M115.859 85.2108L115.859 89.5496L120.203 89.5496L120.203 92.0083L115.859 92.0083L115.859 96.3652L113.408 96.3652L113.408 92.0083L109.064 92.0083L109.064 89.5496L113.408 89.5496L113.408 85.2108L115.859 85.2108Z" fill="white"/>
</g>
<mask id="mask17_71_54713" style="mask-type:alpha" maskUnits="userSpaceOnUse" x="26" y="82" width="18" height="18">
<rect x="43.4448" y="99.457" width="17.3036" height="17.3553" transform="rotate(-180 43.4448 99.457)" fill="#D9D9D9"/>
</mask>
<g mask="url(#mask17_71_54713)">
<path d="M36.0184 85.2108L36.0184 89.5496L40.3623 89.5496L40.3623 92.0083L36.0184 92.0083L36.0184 96.3652L33.5671 96.3652L33.5671 92.0083L29.2231 92.0083L29.2231 89.5496L33.5671 89.5496L33.5671 85.2108L36.0184 85.2108Z" fill="white"/>
</g>
<mask id="mask18_71_54713" style="mask-type:alpha" maskUnits="userSpaceOnUse" x="26" y="2" width="18" height="18">
<rect x="43.4448" y="19.377" width="17.3036" height="17.3553" transform="rotate(-180 43.4448 19.377)" fill="#D9D9D9"/>
</mask>
<g mask="url(#mask18_71_54713)">
<path d="M36.0184 5.13074L36.0184 9.46957L40.3623 9.46957L40.3623 11.9282L36.0184 11.9282L36.0184 16.2852L33.5671 16.2852L33.5671 11.9282L29.2231 11.9282L29.2231 9.46957L33.5671 9.46957L33.5671 5.13074L36.0184 5.13074Z" fill="white"/>
</g>
<mask id="mask19_71_54713" style="mask-type:alpha" maskUnits="userSpaceOnUse" x="105" y="2" width="19" height="18">
<rect x="123.286" y="19.418" width="17.3036" height="17.3553" transform="rotate(-180 123.286 19.418)" fill="#D9D9D9"/>
</mask>
<g mask="url(#mask19_71_54713)">
<path d="M115.859 5.17175L115.859 9.51059L120.203 9.51059L120.203 11.9693L115.859 11.9693L115.859 16.3262L113.408 16.3262L113.408 11.9693L109.064 11.9693L109.064 9.51059L113.408 9.51059L113.408 5.17175L115.859 5.17175Z" fill="white"/>
</g>
<mask id="mask20_71_54713" style="mask-type:alpha" maskUnits="userSpaceOnUse" x="26" y="2" width="18" height="18">
<rect x="43.4448" y="19.418" width="17.3036" height="17.3553" transform="rotate(-180 43.4448 19.418)" fill="#D9D9D9"/>
</mask>
<g mask="url(#mask20_71_54713)">
<path d="M36.0184 5.17175L36.0184 9.51059L40.3623 9.51059L40.3623 11.9693L36.0184 11.9693L36.0184 16.3262L33.5671 16.3262L33.5671 11.9693L29.2231 11.9693L29.2231 9.51059L33.5671 9.51059L33.5671 5.17175L36.0184 5.17175Z" fill="white"/>
</g>
<mask id="mask21_71_54713" style="mask-type:alpha" maskUnits="userSpaceOnUse" x="25" y="2" width="19" height="18">
<rect x="43.2529" y="19.377" width="17.3036" height="17.3553" transform="rotate(-180 43.2529 19.377)" fill="#D9D9D9"/>
</mask>
<g mask="url(#mask21_71_54713)">
<path d="M35.8265 5.13074L35.8265 9.46957L40.1704 9.46957L40.1704 11.9282L35.8265 11.9282L35.8265 16.2852L33.3752 16.2852L33.3752 11.9282L29.0312 11.9282L29.0312 9.46957L33.3752 9.46957L33.3752 5.13074L35.8265 5.13074Z" fill="white"/>
</g>
<mask id="mask22_71_54713" style="mask-type:alpha" maskUnits="userSpaceOnUse" x="25" y="82" width="19" height="18">
<rect x="43.2529" y="99.457" width="17.3036" height="17.3553" transform="rotate(-180 43.2529 99.457)" fill="#D9D9D9"/>
</mask>
<g mask="url(#mask22_71_54713)">
<path d="M35.8265 85.2108L35.8265 89.5496L40.1704 89.5496L40.1704 92.0083L35.8265 92.0083L35.8265 96.3652L33.3752 96.3652L33.3752 92.0083L29.0312 92.0083L29.0312 89.5496L33.3752 89.5496L33.3752 85.2108L35.8265 85.2108Z" fill="white"/>
</g>
<mask id="mask23_71_54713" style="mask-type:alpha" maskUnits="userSpaceOnUse" x="25" y="2" width="19" height="18">
<rect x="43.2529" y="19.418" width="17.3036" height="17.3553" transform="rotate(-180 43.2529 19.418)" fill="#D9D9D9"/>
</mask>
<g mask="url(#mask23_71_54713)">
<path d="M35.8265 5.17175L35.8265 9.51059L40.1704 9.51059L40.1704 11.9693L35.8265 11.9693L35.8265 16.3262L33.3752 16.3262L33.3752 11.9693L29.0312 11.9693L29.0312 9.51059L33.3752 9.51059L33.3752 5.17175L35.8265 5.17175Z" fill="white"/>
</g>
</g>
<defs>
<clipPath id="clip0_71_54713">
<rect width="284" height="180" fill="white" transform="translate(284 180) rotate(-180)"/>
</clipPath>
</defs>
</svg>