<svg width="88" height="42" viewBox="0 0 88 42" fill="none" xmlns="http://www.w3.org/2000/svg">
<g clip-path="url(#clip0_2874_3167)">
<path d="M9.50537 32.468V9.53198H25.5872V14.5499H15.7142V18.4911H24.6054V23.5089H15.7142V32.468H9.50537Z" fill="white"/>
<path d="M34.1565 32.468V9.53198H50.2383V14.5499H40.3653V18.4911H49.2533V23.5089H40.3653V32.468H34.1565Z" fill="white"/>
<path d="M63.9956 9.53198L67.7451 16.206H67.9257L71.7212 9.53198H78.6458L71.8132 21L78.915 32.468H71.8132L67.9257 25.659H67.7451L63.8609 32.468H56.8018L63.815 21L57.025 9.53198H63.9956Z" fill="white"/>
<path d="M88 42H0V0H88V42ZM0.935751 41.0616H87.0643V0.938382H0.935751V41.0616Z" fill="#FF3600"/>
</g>
<defs>
<clipPath id="clip0_2874_3167">
<rect width="88" height="42" fill="white"/>
</clipPath>
</defs>
</svg>
