<svg width="44" height="44" viewBox="0 0 44 44" fill="none" xmlns="http://www.w3.org/2000/svg">
<path d="M22 44C34.1503 44 44 34.1503 44 22C44 9.84974 34.1503 0 22 0C9.84974 0 0 9.84974 0 22C0 34.1503 9.84974 44 22 44Z" fill="#2FD2E5"/>
<path d="M22.7837 5.50966C19.0684 5.38058 15.4217 6.53257 12.4548 8.77253C12.1671 8.98874 11.9311 9.26621 11.7639 9.58485C11.5967 9.9035 11.5024 10.2553 11.488 10.6149C11.4735 10.9745 11.5391 11.3327 11.6802 11.6638C11.8212 11.9949 12.0342 12.2904 12.3035 12.529C13.1588 13.3375 14.476 13.4008 15.4055 12.6789C17.6815 10.9076 20.5387 10.0536 23.4134 10.2852C26.2881 10.5168 28.9717 11.8173 30.9347 13.9302C31.746 14.7689 31.7708 16.0903 30.9925 16.9593C30.7969 17.1691 30.5619 17.3383 30.3009 17.4572C30.0398 17.5762 29.7579 17.6425 29.4713 17.6525C29.1846 17.6624 28.8988 17.6158 28.6302 17.5153C28.3615 17.4147 28.1153 17.2622 27.9056 17.0665L27.7998 16.9593C26.8209 15.8859 25.5403 15.1336 24.1261 14.8012C22.7119 14.4688 21.2303 14.5718 19.8757 15.0967C18.5212 15.6216 17.357 16.5438 16.5361 17.7424C15.7151 18.9409 15.2758 20.3596 15.2758 21.8123C15.2758 23.2651 15.7151 24.6838 16.5361 25.8823C17.357 27.0809 18.5212 28.0031 19.8757 28.528C21.2303 29.0529 22.7119 29.1559 24.1261 28.8235C25.5403 28.4911 26.8209 27.7388 27.7998 26.6654C28.1133 26.3145 28.5338 26.0768 28.9962 25.989C29.4585 25.9013 29.9369 25.9684 30.3572 26.18C30.6563 26.33 30.9166 26.5471 31.1178 26.8144C31.3191 27.0816 31.4558 27.3918 31.5173 27.7206C31.5788 28.0494 31.5634 28.388 31.4724 28.7099C31.3813 29.0319 31.2171 29.3284 30.9925 29.5763C29.0375 31.7163 26.3505 33.0446 23.463 33.2982C20.5755 33.5518 17.6981 32.7123 15.4 30.9458C14.9453 30.5993 14.3828 30.4245 13.8118 30.4522C13.2408 30.4799 12.6979 30.7082 12.2788 31.097C12.0112 31.3422 11.8013 31.6436 11.6641 31.9796C11.527 32.3156 11.466 32.6778 11.4856 33.0402C11.5052 33.4026 11.6049 33.7561 11.7775 34.0754C11.95 34.3946 12.1912 34.6716 12.4836 34.8865C14.5347 36.4076 16.9144 37.4254 19.4311 37.8579C21.9477 38.2903 24.5307 38.1254 26.9719 37.3763C29.4131 36.6272 31.644 35.3149 33.4849 33.5452C35.3258 31.7756 36.725 29.5981 37.5698 27.1884C38.4147 24.7787 38.6814 22.2042 38.3485 19.6725C38.0157 17.1408 37.0925 14.7227 35.6536 12.6132C34.2146 10.5038 32.3 8.76201 30.0643 7.52835C27.8286 6.2947 25.3342 5.60368 22.7824 5.51103L22.7837 5.50966ZM22.4813 25.8432C21.9516 25.8412 21.4276 25.7349 20.9391 25.5304C20.4506 25.3259 20.0071 25.0272 19.634 24.6513C19.2609 24.2754 18.9655 23.8297 18.7647 23.3396C18.5639 22.8496 18.4615 22.3248 18.4635 21.7952C18.4655 21.2656 18.5718 20.7415 18.7763 20.253C18.9808 19.7645 19.2795 19.321 19.6554 18.9479C20.0313 18.5748 20.477 18.2794 20.967 18.0786C21.4571 17.8778 21.9819 17.7754 22.5115 17.7774C23.5811 17.7812 24.6053 18.2098 25.3589 18.9688C26.1125 19.7278 26.5338 20.7551 26.5299 21.8247C26.5261 22.8943 26.0975 23.9186 25.3385 24.6722C24.5795 25.4258 23.5522 25.847 22.4826 25.8432H22.4813Z" fill="white"/>
</svg>
