<svg width="358" height="376" viewBox="0 0 358 376" fill="none" xmlns="http://www.w3.org/2000/svg">
<g clip-path="url(#clip0_1117_34357)">
<path d="M328.095 235.832C330.547 238.284 333.873 239.662 337.341 239.662C340.808 239.662 344.134 238.284 346.586 235.832C349.038 233.38 350.416 230.055 350.416 226.587C350.416 223.119 349.038 219.794 346.586 217.341C344.134 214.889 340.808 213.512 337.341 213.512C333.873 213.512 330.547 214.889 328.095 217.341C325.643 219.794 324.266 223.119 324.266 226.587C324.266 230.055 325.643 233.38 328.095 235.832Z" stroke="#10E77D" stroke-width="2" stroke-dasharray="3 3"/>
<path d="M323.96 246.217C320.956 244.424 317.377 243.875 314.011 244.69C310.644 245.504 307.767 247.616 306.01 250.561C304.254 253.506 303.763 257.042 304.645 260.392C305.527 263.742 307.711 266.631 310.715 268.423C312.202 269.311 313.846 269.903 315.553 270.165C317.261 270.427 318.997 270.354 320.664 269.951C322.33 269.547 323.895 268.821 325.268 267.814C326.64 266.806 327.794 265.537 328.664 264.079C329.534 262.621 330.102 261.003 330.336 259.316C330.57 257.629 330.466 255.907 330.029 254.249C329.592 252.59 328.832 251.027 327.79 249.649C326.749 248.271 325.447 247.105 323.96 246.217V246.217ZM305.047 277.946C303.559 277.059 301.914 276.469 300.207 276.208C298.5 275.948 296.763 276.022 295.097 276.427C291.731 277.245 288.856 279.359 287.102 282.306C285.348 285.252 284.86 288.789 285.745 292.138C286.631 295.487 288.817 298.374 291.822 300.164C294.828 301.954 298.407 302.5 301.773 301.683C305.138 300.865 308.014 298.75 309.768 295.804C311.521 292.858 312.009 289.321 311.124 285.972C310.239 282.623 308.053 279.736 305.047 277.946ZM286.155 309.686C283.151 307.894 279.572 307.344 276.206 308.159C272.839 308.974 269.962 311.086 268.205 314.03C266.449 316.975 265.958 320.511 266.84 323.861C267.722 327.211 269.906 330.1 272.91 331.893C275.914 333.685 279.493 334.235 282.859 333.42C286.225 332.605 289.103 330.493 290.859 327.549C292.616 324.604 293.107 321.068 292.224 317.718C291.342 314.368 289.159 311.479 286.155 309.686V309.686ZM267.242 341.415C265.754 340.529 264.109 339.938 262.402 339.678C260.694 339.417 258.958 339.491 257.292 339.896C255.625 340.301 254.062 341.029 252.69 342.037C251.318 343.046 250.165 344.316 249.297 345.775C248.428 347.234 247.862 348.853 247.629 350.54C247.396 352.227 247.502 353.949 247.94 355.607C248.379 357.265 249.141 358.828 250.184 360.205C251.226 361.582 252.529 362.747 254.017 363.633C257.023 365.423 260.602 365.97 263.968 365.152C267.333 364.334 270.209 362.22 271.963 359.273C273.716 356.327 274.204 352.79 273.319 349.441C272.434 346.092 270.248 343.205 267.242 341.415V341.415ZM329.397 163.444C327.909 162.556 326.265 161.965 324.558 161.703C322.851 161.441 321.115 161.513 319.448 161.917C317.781 162.32 316.217 163.046 314.844 164.054C313.471 165.061 312.317 166.33 311.447 167.788C310.578 169.246 310.009 170.865 309.775 172.552C309.541 174.238 309.645 175.96 310.082 177.619C310.519 179.278 311.28 180.841 312.321 182.219C313.363 183.597 314.664 184.763 316.152 185.65C319.156 187.443 322.735 187.993 326.101 187.178C329.467 186.363 332.345 184.251 334.101 181.306C335.858 178.362 336.349 174.825 335.466 171.476C334.584 168.126 332.401 165.237 329.397 163.444ZM310.484 195.173C308.996 194.286 307.351 193.696 305.644 193.435C303.937 193.175 302.2 193.249 300.534 193.654C297.168 194.472 294.293 196.586 292.539 199.533C290.785 202.479 290.297 206.016 291.183 209.365C292.068 212.714 294.254 215.601 297.259 217.391C300.265 219.181 303.844 219.728 307.21 218.91C310.575 218.092 313.451 215.978 315.205 213.031C316.958 210.085 317.446 206.548 316.561 203.199C315.676 199.85 313.49 196.963 310.484 195.173ZM291.592 226.913C290.104 226.026 288.46 225.434 286.753 225.172C285.046 224.91 283.31 224.983 281.643 225.386C279.976 225.789 278.412 226.515 277.039 227.523C275.666 228.53 274.512 229.799 273.642 231.257C272.773 232.715 272.204 234.334 271.97 236.021C271.736 237.708 271.84 239.43 272.277 241.088C272.714 242.747 273.475 244.31 274.516 245.688C275.558 247.066 276.859 248.232 278.347 249.12C279.834 250.007 281.479 250.599 283.186 250.861C284.893 251.123 286.629 251.051 288.296 250.647C289.963 250.244 291.527 249.518 292.9 248.51C294.272 247.503 295.427 246.234 296.296 244.776C297.166 243.318 297.734 241.699 297.968 240.012C298.203 238.326 298.098 236.604 297.661 234.945C297.225 233.286 296.464 231.723 295.422 230.345C294.381 228.967 293.079 227.801 291.592 226.913V226.913ZM272.679 258.642C271.191 257.756 269.546 257.165 267.839 256.905C266.132 256.644 264.395 256.718 262.729 257.123C259.363 257.941 256.488 260.056 254.734 263.002C252.98 265.948 252.492 269.485 253.378 272.834C254.263 276.183 256.449 279.07 259.454 280.861C262.46 282.651 266.039 283.197 269.405 282.379C272.77 281.562 275.646 279.447 277.4 276.501C279.153 273.554 279.641 270.017 278.756 266.668C277.871 263.319 275.685 260.432 272.679 258.642V258.642Z" stroke="#E73635" stroke-width="2.27" stroke-dasharray="3 2"/>
<path d="M367.476 323.682C364.528 321.934 362.383 319.11 361.511 315.831C360.639 312.552 361.112 309.088 362.826 306.2C364.54 303.311 367.355 301.236 370.651 300.43C373.947 299.624 377.455 300.153 380.402 301.901C381.861 302.767 383.139 303.906 384.163 305.253C385.186 306.6 385.935 308.129 386.367 309.752C386.799 311.375 386.905 313.062 386.679 314.714C386.453 316.367 385.9 317.953 385.052 319.383C384.203 320.814 383.075 322.059 381.732 323.049C380.39 324.039 378.859 324.754 377.226 325.153C375.594 325.552 373.893 325.628 372.22 325.375C370.547 325.123 368.935 324.548 367.476 323.682V323.682ZM385.95 292.572C384.492 291.705 383.215 290.565 382.193 289.217C381.17 287.869 380.423 286.339 379.993 284.716C379.124 281.436 379.6 277.972 381.317 275.086C383.033 272.199 385.85 270.126 389.147 269.323C392.444 268.52 395.951 269.052 398.897 270.803C401.842 272.554 403.986 275.38 404.855 278.659C405.724 281.938 405.247 285.402 403.53 288.289C401.814 291.176 398.997 293.249 395.7 294.052C392.403 294.855 388.896 294.323 385.95 292.572ZM404.445 261.473C401.498 259.725 399.352 256.901 398.48 253.622C397.608 250.344 398.081 246.879 399.796 243.991C401.51 241.103 404.325 239.027 407.621 238.221C410.917 237.415 414.424 237.944 417.371 239.693C420.319 241.441 422.464 244.265 423.336 247.543C424.208 250.822 423.735 254.287 422.021 257.175C420.307 260.063 417.492 262.139 414.196 262.945C410.9 263.751 407.392 263.222 404.445 261.473V261.473ZM422.92 230.363C421.461 229.496 420.184 228.356 419.162 227.008C418.14 225.66 417.392 224.131 416.962 222.507C416.532 220.883 416.427 219.197 416.654 217.545C416.881 215.892 417.436 214.306 418.286 212.877C419.136 211.448 420.265 210.203 421.609 209.214C422.952 208.225 424.484 207.512 426.116 207.114C427.749 206.716 429.45 206.642 431.123 206.896C432.796 207.15 434.407 207.727 435.866 208.594C438.812 210.345 440.955 213.171 441.824 216.45C442.693 219.73 442.217 223.194 440.5 226.08C438.783 228.967 435.966 231.04 432.67 231.843C429.373 232.646 425.866 232.114 422.92 230.363V230.363ZM298.761 367.048C297.301 366.182 296.024 365.044 295 363.697C293.977 362.349 293.228 360.821 292.796 359.197C292.364 357.574 292.258 355.888 292.484 354.235C292.71 352.583 293.263 350.996 294.111 349.566C294.96 348.136 296.088 346.89 297.431 345.9C298.773 344.91 300.304 344.195 301.936 343.796C303.568 343.397 305.269 343.321 306.943 343.574C308.616 343.826 310.228 344.402 311.687 345.268C314.634 347.016 316.78 349.84 317.652 353.118C318.524 356.397 318.051 359.861 316.337 362.75C314.623 365.638 311.808 367.713 308.512 368.52C305.216 369.326 301.708 368.796 298.761 367.048ZM317.236 335.938C315.777 335.071 314.5 333.931 313.478 332.583C312.456 331.235 311.708 329.706 311.278 328.082C310.409 324.803 310.885 321.339 312.602 318.452C314.319 315.565 317.135 313.492 320.432 312.689C323.729 311.886 327.236 312.418 330.182 314.169C333.127 315.92 335.271 318.746 336.14 322.025C337.009 325.304 336.532 328.768 334.816 331.655C333.099 334.542 330.282 336.615 326.985 337.418C323.688 338.221 320.181 337.689 317.236 335.938ZM335.73 304.84C334.271 303.974 332.993 302.835 331.97 301.488C330.946 300.141 330.197 298.612 329.765 296.989C329.334 295.365 329.228 293.679 329.453 292.027C329.679 290.374 330.232 288.787 331.081 287.357C331.929 285.927 333.057 284.682 334.4 283.692C335.743 282.702 337.274 281.987 338.906 281.587C340.538 281.188 342.239 281.113 343.912 281.365C345.585 281.618 347.197 282.193 348.657 283.059C350.116 283.925 351.394 285.063 352.417 286.411C353.441 287.758 354.19 289.286 354.621 290.91C355.053 292.533 355.159 294.219 354.933 295.872C354.708 297.524 354.155 299.111 353.306 300.541C352.457 301.971 351.329 303.217 349.987 304.207C348.644 305.197 347.113 305.912 345.481 306.311C343.849 306.71 342.148 306.786 340.475 306.533C338.802 306.281 337.19 305.705 335.73 304.84V304.84ZM354.205 273.729C352.746 272.862 351.47 271.722 350.447 270.375C349.425 269.027 348.677 267.497 348.247 265.873C347.378 262.594 347.854 259.13 349.571 256.243C351.288 253.357 354.105 251.284 357.401 250.48C360.698 249.677 364.205 250.21 367.151 251.96C370.097 253.711 372.24 256.537 373.109 259.817C373.978 263.096 373.502 266.56 371.785 269.447C370.068 272.333 367.252 274.406 363.955 275.209C360.658 276.013 357.151 275.48 354.205 273.729V273.729Z" stroke="#10E77D" stroke-width="2.27" stroke-dasharray="3 2"/>
</g>
<defs>
<clipPath id="clip0_1117_34357">
<rect width="358" height="376" fill="white"/>
</clipPath>
</defs>
</svg>
