<svg version="1.1" id="Layer_1" style="width:337px;height:63px;" xmlns="http://www.w3.org/2000/svg" xmlns:xlink="http://www.w3.org/1999/xlink" x="0px" y="0px" viewBox="0 0 336.7 62.7" xml:space="preserve"> <style type="text/css"> .st0{fill:url(#SVGID_1_);stroke:#1C3F94;stroke-width:1.125;} st1{fill:url(#SVGID_00000096060127368968927580000010479101491094328976_);} .st2{fill:url(#SVGID_00000029003622934222166950000007755534770832575651_);} .st3{fill:url(#SVGID_00000182511076184150793750000000477869818463663495_);} .st4{fill-rule:evenodd;clip-rule:evenodd;} .st5{fill:#FFFFFF;}.st6{fill-rule:evenodd;clip-rule:evenodd;fill:url(#SVGID_00000180330171583358615690000000324512123911950990_);}.st7{fill:#1C3F94;}</style><linearGradient id="SVGID_1_" gradientUnits="userSpaceOnUse" x1="304.62" y1="10.5248" x2="304.62" y2="57.1346"> <stop offset="5.618000e-03" style="stop-color:#FFFFFF"></stop> <stop offset="0.5" style="stop-color:#787878"></stop> <stop offset="1" style="stop-color:#F4F3F2"></stop> </linearGradient> <path class="st0" d="M333.1,30.9c0,15.7-12.8,28.5-28.5,28.5s-28.5-12.8-28.5-28.5c0-15.7,12.8-28.5,28.5-28.5 S333.1,15.1,333.1,30.9z"></path> <linearGradient id="SVGID_00000145032553914397273270000010537608730026498469_" gradientUnits="userSpaceOnUse" x1="304.8151" y1="16.7369" x2="304.4869" y2="40.6983"> <stop offset="0" style="stop-color:#FFFFFF"></stop> <stop offset="0.5393" style="stop-color:#8F8F8E"></stop> <stop offset="1" style="stop-color:#FFFFFF"></stop> </linearGradient> <path style="fill:url(#SVGID_00000145032553914397273270000010537608730026498469_);" d="M325.2,30.9c0,11.4-9.2,20.6-20.6,20.6 c-11.4,0-20.6-9.2-20.6-20.6c0-11.4,9.2-20.6,20.6-20.6C316,10.3,325.2,19.5,325.2,30.9z"></path> <linearGradient id="SVGID_00000170986258012470924530000011060529232958109855_" gradientUnits="userSpaceOnUse" x1="303.9472" y1="4.4677" x2="304.6038" y2="30.2353"> <stop offset="0" style="stop-color:#1C3F94"></stop> <stop offset="1" style="stop-color:#8287BF"></stop> </linearGradient> <path style="fill:url(#SVGID_00000170986258012470924530000011060529232958109855_);" d="M323.7,30.9c0,10.5-8.5,19-19,19 c-10.5,0-19-8.5-19-19c0-10.5,8.5-19,19-19C315.1,11.8,323.7,20.4,323.7,30.9z"></path> <linearGradient id="SVGID_00000172440124686953213680000013024554223717563809_" gradientUnits="userSpaceOnUse" x1="304.3187" y1="19.85" x2="304.811" y2="37.9016"> <stop offset="0" style="stop-color:#1C3F94"></stop> <stop offset="1" style="stop-color:#8287BF"></stop> </linearGradient> <path style="fill:url(#SVGID_00000172440124686953213680000013024554223717563809_);" d="M285.6,29.6c0,0.4-0.1,0.9-0.1,1.3 c0,10.5,8.5,19,19,19c10.5,0,19-8.5,19-19c0-0.4,0-0.8,0-1.2C307.6,26.9,294.7,27.8,285.6,29.6z"></path> <g> <path d="M309.7,33.4c0-2.5-2-4.5-4.5-4.5c-2.5,0-4.5,2-4.5,4.5c0,2.5,2,4.5,4.5,4.5C307.7,37.9,309.7,35.9,309.7,33.4z M315.2,23.4 l-5.4,0l-2.1-2.7l-5.2,0l-2.1,2.7l-5.7,0c-1.2,0-2.1,0.9-2.1,2.1l0,11.2c0,1.2,0.9,2.1,2.1,2.1h7.4c-1.9-1.1-3.2-3.1-3.2-5.4 c0-3.4,2.8-6.2,6.2-6.2c3.4,0,6.2,2.8,6.2,6.2c0,2.3-1.3,4.3-3.2,5.4l7,0c1.2,0,2.1-0.9,2.1-2.1l0-11.2 C317.3,24.3,316.4,23.4,315.2,23.4z M315.4,27.4c0,0.4-0.3,0.7-0.7,0.7h-2.8c-0.4,0-0.7-0.3-0.7-0.7l0-1.8c0-0.4,0.3-0.7,0.7-0.7 l2.8,0c0.4,0,0.7,0.3,0.7,0.7V27.4z"></path> <path class="st4" d="M299,33.4c0-1.1,0.3-2.2,0.8-3.1c-2.5,0.1-4.9,0.2-7.2,0.5v6c0,1.2,0.9,2.1,2.1,2.1h7.4 C300.2,37.8,299,35.7,299,33.4z M309.7,33.4c0-1.2-0.5-2.3-1.3-3.1c-2.2-0.1-4.4-0.1-6.5,0c-0.8,0.8-1.3,1.9-1.3,3.2 c0,2.5,2,4.5,4.5,4.5C307.7,37.9,309.7,35.9,309.7,33.4z M310.6,30.4c0.5,0.9,0.8,1.9,0.8,3c0,2.3-1.3,4.3-3.2,5.4l7,0 c1.2,0,2.1-0.9,2.1-2.1l0-5.8C315,30.7,312.8,30.5,310.6,30.4z"></path> </g> <g> <path class="st5" d="M309,32.7c0-2.5-2-4.5-4.5-4.5c-2.5,0-4.5,2-4.5,4.5c0,2.5,2,4.5,4.5,4.5C307,37.3,309,35.2,309,32.7z M314.5,22.7l-5.4,0l-2.1-2.7l-5.2,0l-2.1,2.7l-5.7,0c-1.2,0-2.1,0.9-2.1,2.1l0,11.2c0,1.2,0.9,2.1,2.1,2.1l7.4,0 c-1.9-1.1-3.2-3.1-3.2-5.4c0-3.4,2.8-6.2,6.2-6.2c3.4,0,6.2,2.8,6.2,6.2c0,2.3-1.3,4.3-3.2,5.4l7,0c1.2,0,2.1-0.9,2.1-2.1l0-11.2 C316.6,23.7,315.7,22.7,314.5,22.7z M314.7,26.7c0,0.4-0.3,0.7-0.7,0.7h-2.8c-0.4,0-0.7-0.3-0.7-0.7l0-1.8c0-0.4,0.3-0.7,0.7-0.7 l2.8,0c0.4,0,0.7,0.3,0.7,0.7L314.7,26.7z"></path> <linearGradient id="SVGID_00000079474038110618404700000009062815302577089164_" gradientUnits="userSpaceOnUse" x1="304.2948" y1="38.1597" x2="304.2948" y2="29.5538"> <stop offset="0" style="stop-color:#FFFFFF"></stop> <stop offset="0.4337" style="stop-color:#FDFDFD"></stop> <stop offset="0.5899" style="stop-color:#F6F6F6"></stop> <stop offset="0.7013" style="stop-color:#EBEBEB"></stop> <stop offset="0.7913" style="stop-color:#DADADA"></stop> <stop offset="0.8684" style="stop-color:#C4C4C4"></stop> <stop offset="0.9355" style="stop-color:#A9A9A9"></stop> <stop offset="0.9959" style="stop-color:#8A8A8A"></stop> <stop offset="1" style="stop-color:#878787"></stop> </linearGradient> <path style="fill-rule:evenodd;clip-rule:evenodd;fill:url(#SVGID_00000079474038110618404700000009062815302577089164_);" d=" M298.3,32.7c0-1.1,0.3-2.2,0.8-3.1c-2.5,0.1-4.9,0.2-7.2,0.5v6c0,1.2,0.9,2.1,2.1,2.1l7.4,0C299.6,37.1,298.3,35.1,298.3,32.7z M309,32.7c0-1.2-0.5-2.3-1.3-3.1c-2.2-0.1-4.4-0.1-6.5,0c-0.8,0.8-1.3,1.9-1.3,3.2c0,2.5,2,4.5,4.5,4.5 C307,37.3,309,35.2,309,32.7z M309.9,29.7c0.5,0.9,0.8,1.9,0.8,3c0,2.3-1.3,4.3-3.2,5.4l7,0c1.2,0,2.1-0.9,2.1-2.1v-5.8 C314.3,30,312.1,29.8,309.9,29.7z"></path> </g> <g> <path class="st7" d="M2.1,18.2c0-0.9,0.2-1.3,1-1.5c1.3-0.4,4.9-0.6,7.3-0.6c4,0,12.4,0.5,12.4,9.2c0,6-4.2,9.4-11,9.4 c-0.6,0-1.3,0-2.4-0.1V45c0,0.8-0.3,1-1,1H3.2c-0.8,0-1.1-0.1-1.1-1V18.2z M9.4,30.3c0.5,0,0.8,0.1,1.3,0.1c3.3,0,4.8-1.8,4.8-5.1 c0-2.4-0.8-5.1-4.8-5.1c-0.5,0-0.9,0-1.3,0.1V30.3z"></path> <path class="st7" d="M37.8,39.2h-8l-1.9,5.9c-0.2,0.7-0.5,0.9-1.2,0.9H23c-0.4,0-0.8-0.1-0.8-0.6c0-0.2,0-0.3,0.2-0.8l9.7-27.3 c0.3-0.7,0.5-0.9,1.2-0.9h3.3c0.8,0,1,0.2,1.2,0.9l9.6,27.4c0.1,0.2,0.1,0.4,0.1,0.6c0,0.7-0.5,0.7-1,0.7H41c-0.7,0-1-0.1-1.2-0.9 L37.8,39.2z M36.6,35.2l-2.8-9.3L31,35.2H36.6z"></path> <path class="st7" d="M51.6,18c0-0.9,0.3-1.1,0.8-1.3c1.1-0.3,4.9-0.6,7.3-0.6c2.6,0,11.8,0,11.8,8.7c0,4.2-2.8,6.6-5.6,7.8l7,11.8 c0.3,0.4,0.4,0.6,0.4,0.9c0,0.5-0.5,0.7-0.9,0.7h-5.5c-1,0-1.2-0.1-1.6-1l-5.1-10.2c-0.1-0.3-0.4-0.7-0.8-0.7 c-0.6,0-0.6,0.6-0.6,0.9v9.9c0,0.8-0.3,1-1.1,1h-5c-0.7,0-1-0.1-1-0.9V18z M58.7,30.9c1.5,0.1,5.7,0.2,5.7-5.2 c0-5.1-2.8-5.4-4.6-5.4c-0.2,0-0.5,0-1,0V30.9z"></path> <path class="st7" d="M90.9,29.1l9.2,15.3c0.3,0.4,0.4,0.6,0.4,0.9c0,0.6-0.5,0.7-1,0.7h-5.8c-0.9,0-1.1-0.1-1.5-0.8l-7-12.6v12.4 c0,1-0.5,1.1-1,1.1h-4.9c-0.7,0-1-0.2-1-1V17.5c0-0.7,0.2-1,1-1h5.1c0.7,0,1,0.1,1,1v11l7.4-11.1c0.5-0.7,0.6-0.9,1.5-0.9h4.1 c0.3,0,1,0,1,0.6c0,0.3-0.1,0.5-0.5,0.9L90.9,29.1z"></path> <path class="st7" d="M128.2,21.7c-1.4-1.1-4.5-2.6-7.7-2.6c-7.2,0-11.5,5.2-11.5,12c0,7.4,5.1,12.4,11.5,12.4c3.2,0,5.7-1,7.4-2.2 l1.6,2.4c-2,1.3-5.4,2.7-9.2,2.7c-10.5,0-15.8-7.2-15.8-15.2c0-7.4,5.8-15.1,16.3-15.1c4.2,0,7.1,1.5,9,3L128.2,21.7z"></path> <path class="st7" d="M144.2,43.7c-1.5,1.5-3.3,2.8-5.2,2.8c-3.5,0-5.9-2.5-5.9-6.4c0-3.6,3.1-5.9,7.4-7.2l5.1-1.6 c-0.2-2.6-2.1-4.2-4.2-4.2c-2.4,0-4,1-5.5,2.3l-1.5-1.9c2.1-2,4.2-2.8,7.2-2.8c3.1,0,7.7,1,7.7,7.1v9.2c0,1.6,0.2,3.6,0.9,5.1h-4.1 c-0.5-0.9-0.6-2.2-0.6-3.6L144.2,43.7z M141.9,34.8c-3.3,1-5,2.6-5,5.2c0,2.2,1.5,3.6,3,3.6c2.7,0,6.1-3.3,5.6-9.8L141.9,34.8z"></path> <path class="st7" d="M159.3,27.6c1.7-2,4.2-3.1,6.5-3.1c3.3,0,5.4,1.4,6.7,3.1c2-1.8,4.9-3.1,7.2-3.1c4.6,0,7,3,7.1,7.4v14H183 V33.5c0-3-0.8-6-4.6-6c-3.2,0-5.4,1.7-5.4,5.9V46h-3.8V33.5c0-3.9-1.7-6-4.7-6c-3.2,0-5.2,2.1-5.2,6.1V46h-3.8V25.1h3.7V27.6z"></path> <path class="st7" d="M195.6,35.8c0,4.2,2.9,8,7.1,8c1.9,0,4.3-0.7,5.7-1.8l1.1,2c-2.2,1.5-4.8,2.4-6.9,2.4c-6.5,0-10.8-4-10.8-11.4 c0-7.2,5.2-10.5,9.9-10.5c6.4,0,8.5,5.7,8.1,11.2H195.6z M206.3,33.3c0-3.3-1.4-6-4.7-6c-4,0-5.6,3.3-5.7,6H206.3z"></path> <path class="st7" d="M218.3,27.6l1.5-1.6c0.9-0.9,2.3-1.5,3.1-1.5c0.9,0,2.3,0.7,3.5,2.1l-1.7,2.4c-0.9-0.5-1.8-0.9-2.8-0.9 c-1.9,0-3.5,1.9-3.5,6.6V46h-3.8V25.1h3.7V27.6z"></path> <path class="st7" d="M239.1,43.7c-1.5,1.5-3.3,2.8-5.2,2.8c-3.5,0-5.9-2.5-5.9-6.4c0-3.6,3.1-5.9,7.4-7.2l5.1-1.6 c-0.2-2.6-2.1-4.2-4.2-4.2c-2.4,0-4,1-5.5,2.3l-1.5-1.9c2.1-2,4.2-2.8,7.2-2.8c3.1,0,7.7,1,7.7,7.1v9.2c0,1.6,0.2,3.6,0.9,5.1H241 c-0.5-0.9-0.6-2.2-0.6-3.6L239.1,43.7z M236.8,34.8c-3.3,1-5,2.6-5,5.2c0,2.2,1.5,3.6,3,3.6c2.7,0,6.1-3.3,5.6-9.8L236.8,34.8z"></path> <path class="st7" d="M260.3,28.4c-1.5-1-2.7-1.3-3.8-1.3c-1.3,0-3.1,0.6-3.1,2.4c0,1.8,1.9,2.6,4.3,4.4c2.7,2.1,4.4,3.8,4.4,6.7 c0,3.5-3.5,5.9-7.3,5.9c-2.4,0-5.1-1-6.4-2.6l1.8-2.1c1.2,1.1,2.8,2.1,4.5,2.1c1.8,0,3.6-0.9,3.6-3c0-2.4-2.2-3.5-4.1-4.9 c-2.4-1.7-4.5-3.1-4.5-6c0-3.3,3.3-5.4,6.9-5.4c2.1,0,4.1,0.8,5.1,1.9L260.3,28.4z"></path> </g> </svg>